<?xml version="1.0" encoding="UTF-8" standalone="no"?>
<svg width="20px" height="20px" viewBox="0 0 20 20" version="1.1" xmlns="http://www.w3.org/2000/svg" xmlns:xlink="http://www.w3.org/1999/xlink">
    <!-- Generator: Sketch 39.1 (31720) - http://www.bohemiancoding.com/sketch -->
    <title>compose-icon</title>
    <desc>Created with Sketch.</desc>
    <defs></defs>
    <g id="Page-1" stroke="none" stroke-width="1" fill="none" fill-rule="evenodd">
        <g id="Dashboard" transform="translate(-292.000000, -81.000000)" fill="#3295F4">
            <g id="menu" transform="translate(0.000000, 60.000000)">
                <g id="header">
                    <path d="M300.259784,29.6761032 C300.082154,29.853733 299.926728,30.0757702 299.837913,30.2978074 L298.32806,33.650569 C298.083819,34.2722731 298.594505,34.7829586 299.194005,34.516514 L302.546767,33.0288648 C302.768804,32.9178462 302.990841,32.7846239 303.168471,32.6069942 L311.383847,24.5470441 C312.205384,23.7255065 312.205384,22.4154871 311.383847,21.6161532 C310.562309,20.7946156 309.25229,20.7946156 308.452956,21.6161532 L300.259784,29.6761032 Z M309.452123,32.2073272 C308.763808,32.2073272 308.208715,32.7624202 308.208715,33.4507355 L308.208715,37.2697752 C308.208715,37.9580905 307.653622,38.5131835 306.965307,38.5131835 L295.708021,38.5131835 C295.019706,38.5131835 294.464613,37.9580905 294.464613,37.2697752 L294.464613,25.9902859 C294.464613,25.3019706 295.019706,24.7468776 295.708021,24.7468776 L299.371635,24.7468776 C300.05995,24.7468776 300.615043,24.1917846 300.615043,23.5034693 C300.615043,22.815154 300.05995,22.2600611 299.371635,22.2600611 L295.708021,22.2600611 C293.665279,22.2822648 292,23.9475437 292,25.9902859 L292,37.2697752 C292,39.3125173 293.665279,40.9777963 295.708021,40.9777963 L306.98751,40.9777963 C309.030253,40.9777963 310.695532,39.3125173 310.695532,37.2697752 L310.695532,33.4507355 C310.695532,32.7624202 310.140439,32.2073272 309.452123,32.2073272 Z" id="compose-icon"></path>
                </g>
            </g>
        </g>
    </g>
</svg>