<?xml version="1.0" encoding="UTF-8" standalone="no"?>
<svg width="80px" height="21px" viewBox="0 0 80 21" version="1.1" xmlns="http://www.w3.org/2000/svg" xmlns:xlink="http://www.w3.org/1999/xlink">
    <!-- Generator: Sketch 39.1 (31720) - http://www.bohemiancoding.com/sketch -->
    <title>logo</title>
    <desc>Created with Sketch.</desc>
    <defs></defs>
    <g id="Symbols" stroke="none" stroke-width="1" fill="none" fill-rule="evenodd">
        <g id="header_logged_out" transform="translate(-47.000000, -21.000000)" fill="#3295F4">
            <g id="header">
                <path d="M86.6472663,35.1148661 C86.5020718,34.2940377 85.5366994,29.9744658 81.1551803,28.8616162 C76.3072681,27.6303087 73.645666,33.3080665 73.645666,33.3080665 L73.644248,33.3033959 C73.0898275,34.8791969 72.1550257,36.6853276 70.6037876,37.8644972 C67.3253004,40.3566306 63.644503,40.3166689 63.644503,40.3166689 C63.644503,40.3166689 64.5674942,40.4777768 66.948031,38.2935584 C69.3285679,36.10934 69.3285672,35.1450032 69.3285672,35.1450032 C69.3285672,35.1450032 66.948031,37.8644975 60.2584016,40.2605123 C53.5687722,42.6565271 47,41.8715969 47,41.8715969 C47,41.8715969 57.9353975,40.7474135 63.3974061,30.6836023 C67.246569,23.5914774 69.2869774,21.9725416 70.1563594,21.6348314 C70.6949214,21.4110987 75.5847931,19.5198199 77.9139229,23.5727961 C78.1204286,23.9321418 78.3537144,24.268107 78.6078493,24.5820881 C80.4742225,27.09269 83.4061328,28.7394379 86.7199278,28.8275293 C86.7866609,28.8340416 86.8564157,28.8374952 86.9281988,28.8374952 C86.9869266,28.8374952 87.0442967,28.8351836 87.0997652,28.8307766 C87.1770847,28.830046 87.2542047,28.828467 87.3311166,28.8260483 L87.3311166,28.8595668 L87.3311166,28.8260483 C90.6237424,28.7225015 93.5349725,27.0800137 95.3917742,24.5825946 C95.6460552,24.2684534 95.8794694,23.9323192 96.0860771,23.5727961 C98.4152069,19.5198199 103.305079,21.4110987 103.843641,21.6348314 C104.713023,21.9725416 106.753431,23.5914774 110.602594,30.6836023 C116.064603,40.7474135 127,41.8715969 127,41.8715969 C127,41.8715969 120.431228,42.6565271 113.741598,40.2605123 C107.051969,37.8644975 104.671433,35.1450032 104.671433,35.1450032 C104.671433,35.1450032 104.671432,36.10934 107.051969,38.2935584 C109.432506,40.4777768 110.355497,40.3166689 110.355497,40.3166689 C110.355497,40.3166689 106.6747,40.3566306 103.396212,37.8644972 C101.844974,36.6853276 100.910173,34.8791969 100.355752,33.3033959 L100.354334,33.3080665 C100.354334,33.3080665 97.6927319,27.6303087 92.8448197,28.8616162 C88.4633006,29.9744658 87.4979282,34.2976194 87.3527337,35.119137 L87.3527337,35.1365849 C87.3527337,35.3278271 87.1891121,35.4828595 87,35.4828595 C86.8051906,35.4828595 86.6472663,35.3321764 86.6472663,35.1365849 L86.6472663,35.1148661 Z M87.3311166,34.074958 L87.3311166,28.8595668 L87.3311166,28.8965741 L87.3311163,34.0749572 C87.3311164,34.0749575 87.3311165,34.0749577 87.3311166,34.074958 Z" id="logo"></path>
            </g>
        </g>
    </g>
</svg>